HIERARCHY
ROOT Hips
{
 OFFSET 0.000000 0.000000 0.000000
 CHANNELS 6 Xposition Yposition Zposition Yrotation Xrotation Zrotation
 JOINT Chest
 {
  OFFSET 0.000000 10.080317 -0.001081
  CHANNELS 3 Yrotation Xrotation Zrotation
  JOINT Chest2
  {
   OFFSET 0.000000 11.096852 0.001963
   CHANNELS 3 Yrotation Xrotation Zrotation
   JOINT Chest3
   {
    OFFSET 0.000000 10.026525 0.000000
    CHANNELS 3 Yrotation Xrotation Zrotation
    JOINT Chest4
    {
     OFFSET 0.000000 10.026525 0.000000
     CHANNELS 3 Yrotation Xrotation Zrotation
     JOINT Neck
     {
      OFFSET 0.000000 14.108171 0.000000
      CHANNELS 3 Yrotation Xrotation Zrotation
      JOINT Head
      {
       OFFSET 0.000000 9.333493 0.004668
       CHANNELS 3 Yrotation Xrotation Zrotation
       End Site
       {
        OFFSET 0.000000 17.851786 0.002438
       }
      }
     }
     JOINT RightCollar
     {
      OFFSET -3.071622 7.873185 0.000000
      CHANNELS 3 Yrotation Xrotation Zrotation
      JOINT RightShoulder
      {
       OFFSET -14.378659 0.000000 0.000000
       CHANNELS 3 Yrotation Xrotation Zrotation
       JOINT RightElbow
       {
        OFFSET -30.778728 0.000000 0.000000
        CHANNELS 3 Yrotation Xrotation Zrotation
        JOINT RightWrist
        {
         OFFSET -25.164217 0.000000 0.000000
         CHANNELS 3 Yrotation Xrotation Zrotation
         End Site
         {
          OFFSET -18.796788 0.000000 0.000000
         }
        }
       }
      }
     }
     JOINT LeftCollar
     {
      OFFSET 3.071622 7.873185 0.000000
      CHANNELS 3 Yrotation Xrotation Zrotation
      JOINT LeftShoulder
      {
       OFFSET 14.378659 0.000000 0.000000
       CHANNELS 3 Yrotation Xrotation Zrotation
       JOINT LeftElbow
       {
        OFFSET 30.778728 0.000000 0.000000
        CHANNELS 3 Yrotation Xrotation Zrotation
        JOINT LeftWrist
        {
         OFFSET 25.164217 0.000000 0.000000
         CHANNELS 3 Yrotation Xrotation Zrotation
         End Site
         {
          OFFSET 18.796788 0.000000 0.000000
         }
        }
       }
      }
     }
    }
   }
  }
 }
 JOINT RightHip
 {
  OFFSET -8.194923 0.005295 0.000540
  CHANNELS 3 Yrotation Xrotation Zrotation
  JOINT RightKnee
  {
   OFFSET 0.000000 -42.473320 -0.000511
   CHANNELS 3 Yrotation Xrotation Zrotation
   JOINT RightAnkle
   {
    OFFSET 0.000000 -41.474259 -0.000865
    CHANNELS 3 Yrotation Xrotation Zrotation
    JOINT RightToe
    {
     OFFSET 0.000000 -7.354994 16.712725
     CHANNELS 3 Yrotation Xrotation Zrotation
     End Site
     {
      OFFSET 0.000000 -1.553903 6.764158
     }
    }
   }
  }
 }
 JOINT LeftHip
 {
  OFFSET 8.194923 0.005295 0.000540
  CHANNELS 3 Yrotation Xrotation Zrotation
  JOINT LeftKnee
  {
   OFFSET 0.000000 -42.473320 -0.000511
   CHANNELS 3 Yrotation Xrotation Zrotation
   JOINT LeftAnkle
   {
    OFFSET 0.000000 -41.474259 -0.000865
    CHANNELS 3 Yrotation Xrotation Zrotation
    JOINT LeftToe
    {
     OFFSET 0.000000 -7.354994 16.712725
     CHANNELS 3 Yrotation Xrotation Zrotation
     End Site
     {
      OFFSET 0.000000 -1.553903 6.764158
     }
    }
   }
  }
 }
}
MOTION
Frames: 7
Frame Time: 0.016667
0.000000 91.111157 0.000000 0.000000 -5.826342 0.000000 0.000000 11.116423 0.000000 0.000000 -5.290081 0.000000 0.000000 0.000000 0.000000 0.000000 0.000000 0.000000 0.000000 12.665069 0.000000 0.000000 0.575450 0.000000 0.000000 0.000000 0.000000 0.000000 0.000000 0.000000 2.337306 0.000000 0.000000 -2.337306 0.000000 0.000000 0.000000 0.000000 0.000000 0.000000 0.000000 0.000000 -2.337306 0.000000 0.000000 2.337306 0.000000 0.000000 0.000000 8.578828 0.000000 0.000000 1.905768 0.000000 0.000000 -4.658254 0.000000 0.000000 0.000000 0.000000 0.000000 8.578828 0.000000 0.000000 1.905768 0.000000 0.000000 -4.658254 0.000000 0.000000 0.000000 0.000000
-45.651965 92.753357 57.933296 0.441513 -4.476173 -0.519842 0.184588 2.589867 -0.915218 0.089994 1.151290 -0.376794 0.089994 1.151290 -0.376794 0.068203 0.863412 -0.282756 -3.352054 17.053393 1.399817 -6.688036 -4.361357 3.752773 -1.593092 -0.197305 10.153659 -2.175240 0.669804 75.259880 9.422079 3.702484 6.954998 -2.930871 -2.925742 -0.267732 -3.874398 -0.538169 -5.574755 -0.840280 -4.054948 -72.939080 -4.417457 9.802760 -10.529663 3.570464 0.413655 7.312105 -4.875026 8.992558 0.654104 -8.138534 3.055682 0.258254 -13.337182 -6.516190 1.627175 -0.076528 -0.114539 -0.085607 -2.097001 9.618033 0.785034 -6.691653 2.331238 -0.144766 -3.324175 -6.363697 1.387546 0.087845 0.093741 0.020605
-45.671754 92.756824 57.910496 0.417202 -4.502888 -0.523974 0.184182 2.599301 -0.927909 0.089818 1.155536 -0.381417 0.089818 1.155536 -0.381417 0.068083 0.866596 -0.286223 -3.358705 17.069330 1.402921 -6.700532 -4.331168 3.759789 -1.622491 -0.204370 10.141088 -2.159641 0.682946 75.232546 9.514239 3.720522 7.075632 -2.934328 -2.910354 -0.254933 -3.889166 -0.540464 -5.561595 -0.835237 -4.064664 -72.952848 -4.451724 9.844906 -10.543121 3.578944 0.416145 7.294434 -4.860895 8.996384 0.665701 -8.130440 3.068796 0.259398 -13.361348 -6.501413 1.626258 -0.075185 -0.117747 -0.084126 -2.087431 9.594571 0.805565 -6.660841 2.406267 -0.161041 -3.333291 -6.387668 1.390740 0.083052 0.086752 0.016403
-45.698256 92.759973 57.885371 0.389850 -4.535166 -0.531560 0.183110 2.610929 -0.940250 0.089863 1.161379 -0.384419 0.089863 1.161379 -0.384419 0.068126 0.870978 -0.288475 -3.360287 17.079353 1.406581 -6.704170 -4.312226 3.766459 -1.635909 -0.242645 10.148298 -2.180875 0.722052 75.171729 9.640302 3.759181 7.215845 -2.964927 -2.901297 -0.225588 -3.910235 -0.554253 -5.559497 -0.833948 -4.072010 -72.969914 -4.472499 9.878920 -10.541138 3.605394 0.415723 7.272735 -4.851125 8.981689 0.678595 -8.117691 3.130363 0.263943 -13.345505 -6.511009 1.614899 -0.073595 -0.123538 -0.078504 -2.082915 9.587707 0.828780 -6.632078 2.457663 -0.164984 -3.348036 -6.400909 1.373839 0.082837 0.082718 0.020480
-45.721874 92.762167 57.859506 0.356157 -4.565323 -0.538566 0.186494 2.625455 -0.953255 0.090820 1.167383 -0.388381 0.090820 1.167383 -0.388381 0.068855 0.875480 -0.291449 -3.366142 17.090765 1.412832 -6.716523 -4.290258 3.779298 -1.665997 -0.255525 10.161999 -2.187601 0.728168 75.095673 9.767474 3.799476 7.380833 -2.977039 -2.884188 -0.203224 -3.955536 -0.566400 -5.555980 -0.828024 -4.085148 -72.973468 -4.487361 9.922522 -10.542236 3.620578 0.398551 7.256188 -4.836258 8.967647 0.702655 -8.115394 3.180937 0.248149 -13.341666 -6.518587 1.614417 -0.073328 -0.122959 -0.074704 -2.081530 9.571970 0.848730 -6.604596 2.524884 -0.171302 -3.349213 -6.425636 1.365456 0.082363 0.083110 0.019273
-45.752645 92.764372 57.832749 0.324616 -4.590560 -0.550247 0.186204 2.636477 -0.957657 0.090706 1.172341 -0.389999 0.090706 1.172341 -0.389999 0.068775 0.879199 -0.292663 -3.371688 17.096399 1.411930 -6.726155 -4.279523 3.779181 -1.672822 -0.266923 10.153936 -2.190017 0.743164 75.042659 9.903576 3.793572 7.543418 -2.991968 -2.853414 -0.174743 -3.980184 -0.567183 -5.555484 -0.836713 -4.110530 -72.979509 -4.513410 9.948270 -10.558924 3.632888 0.416120 7.276811 -4.807293 8.959756 0.720954 -8.130845 3.215529 0.261981 -13.305518 -6.522250 1.592587 -0.072476 -0.123688 -0.070435 -2.079245 9.567751 0.888768 -6.586582 2.552777 -0.192542 -3.340331 -6.425905 1.351927 0.083426 0.081539 0.022509
-45.778233 92.766239 57.811979 0.296679 -4.613279 -0.556462 0.186488 2.643918 -0.967731 0.090222 1.174725 -0.392634 0.090222 1.174725 -0.392634 0.068419 0.880986 -0.294639 -3.371506 17.107757 1.413092 -6.725595 -4.258389 3.780542 -1.681483 -0.275953 10.145442 -2.187369 0.757904 75.010464 10.036920 3.770250 7.702498 -3.017939 -2.849754 -0.135338 -4.001784 -0.558900 -5.548634 -0.835363 -4.121283 -72.990672 -4.541467 9.965085 -10.576146 3.617657 0.400728 7.284439 -4.771148 8.951084 0.742470 -8.121609 3.250162 0.259060 -13.317152 -6.526542 1.589015 -0.074970 -0.124924 -0.070635 -2.097004 9.555134 0.918391 -6.553315 2.600368 -0.221090 -3.330212 -6.439419 1.347645 0.083332 0.081154 0.025121
